<?xml version="1.0" encoding="UTF-8" standalone="no"?>
<!-- Created with Inkscape (http://www.inkscape.org/) -->

<svg
   xmlns:dc="http://purl.org/dc/elements/1.1/"
   xmlns:cc="http://creativecommons.org/ns#"
   xmlns:rdf="http://www.w3.org/1999/02/22-rdf-syntax-ns#"
   xmlns:svg="http://www.w3.org/2000/svg"
   xmlns="http://www.w3.org/2000/svg"
   xmlns:sodipodi="http://sodipodi.sourceforge.net/DTD/sodipodi-0.dtd"
   xmlns:inkscape="http://www.inkscape.org/namespaces/inkscape"
   width="1052.3622"
   height="744.09448"
   id="svg2"
   version="1.1"
   inkscape:version="0.48.4 r9939"
   sodipodi:docname="New document 1">
  <defs
     id="defs4" />
  <sodipodi:namedview
     id="base"
     pagecolor="#000000"
     bordercolor="#666666"
     borderopacity="1.0"
     inkscape:pageopacity="0.0"
     inkscape:pageshadow="2"
     inkscape:zoom="0.67598942"
     inkscape:cx="526.18109"
     inkscape:cy="372.04724"
     inkscape:document-units="px"
     inkscape:current-layer="layer1"
     showgrid="false"
     inkscape:window-width="1360"
     inkscape:window-height="702"
     inkscape:window-x="0"
     inkscape:window-y="27"
     inkscape:window-maximized="1" />
  <metadata
     id="metadata7">
    <rdf:RDF>
      <cc:Work
         rdf:about="">
        <dc:format>image/svg+xml</dc:format>
        <dc:type
           rdf:resource="http://purl.org/dc/dcmitype/StillImage" />
        <dc:title></dc:title>
      </cc:Work>
    </rdf:RDF>
  </metadata>
  <g
     inkscape:label="Layer 1"
     inkscape:groupmode="layer"
     id="layer1"
     transform="translate(0,-308.2677)">
    <g
       id="g3812"
       transform="translate(11.834505,51.775958)">
      <g
         id="g3000">
        <path
           style="fill:#000000;fill-opacity:1;fill-rule:nonzero;stroke:none"
           d="m 499.28125,215.96875 c -45.34361,0 -82.125,73.53152 -82.125,164.21875 0,90.68723 36.78139,164.1875 82.125,164.1875 45.34361,0 82.09375,-73.50027 82.09375,-164.1875 0,-90.68723 -36.75014,-164.21875 -82.09375,-164.21875 z m -0.75,13.3125 c 41.46285,0 75.0625,67.23054 75.0625,150.15625 0,82.92571 -33.59965,150.15625 -75.0625,150.15625 -41.46285,0 -75.0625,-67.23054 -75.0625,-150.15625 0,-82.92571 33.59965,-150.15625 75.0625,-150.15625 z"
           transform="translate(0,308.2677)"
           id="path2985"
           inkscape:connector-curvature="0" />
        <path
           style="fill:#000000;fill-opacity:1;fill-rule:nonzero;stroke:none"
           d="m 442.11545,579.23579 c 41.44416,10.25186 72.42799,12.15183 113.87215,-1.56904 l 6.27619,25.91548 c -50.9591,9.25995 -78.49954,10.121 -129.56263,3.66111 z"
           id="rect2990"
           inkscape:connector-curvature="0"
           sodipodi:nodetypes="ccccc" />
        <path
           sodipodi:nodetypes="ccccc"
           inkscape:connector-curvature="0"
           id="path2994"
           d="m 425.37893,641.99773 c 46.84866,11.82091 97.35843,13.19785 147.8682,-0.52302 l 3.66111,30.62263 c -62.10604,9.25995 -100.86816,7.50592 -154.14439,0 z"
           style="fill:#000000;fill-opacity:1;fill-rule:nonzero;stroke:none" />
        <path
           style="fill:#000000;fill-opacity:1;fill-rule:nonzero;stroke:none"
           d="m 422.76385,709.46681 c 50.50977,10.25186 101.01954,13.72087 151.52931,0 l 0,30.09961 c -62.10604,9.25995 -107.14435,4.89084 -151.52931,0 z"
           id="path2996"
           inkscape:connector-curvature="0"
           sodipodi:nodetypes="ccccc" />
        <path
           sodipodi:nodetypes="ccccc"
           inkscape:connector-curvature="0"
           id="path2998"
           d="m 429.56306,771.70573 c 50.50977,10.25186 83.76,13.19786 134.26977,-0.52301 l -8.36825,27.48453 c -44.3235,7.6909 -70.01021,6.9829 -114.39517,2.09206 z"
           style="fill:#000000;fill-opacity:1;fill-rule:nonzero;stroke:none" />
      </g>
      <path
         inkscape:connector-curvature="0"
         id="path3007"
         d="m 500.00319,413.29684 c -31.04876,0 -56.22382,25.15912 -56.22382,56.20788 0,31.04876 25.17506,56.22382 56.22382,56.22382 31.04876,0 56.22382,-25.17506 56.22382,-56.22382 0,-31.04876 -25.17506,-56.20788 -56.22382,-56.20788 z m 0,4.52723 c 28.54819,0 51.69659,23.13246 51.69659,51.68065 0,28.54819 -23.1484,51.69658 -51.69659,51.69658 -28.54819,0 -51.69659,-23.14839 -51.69659,-51.69658 0,-28.54819 23.1484,-51.68065 51.69659,-51.68065 z"
         style="fill:#000000;fill-opacity:1;fill-rule:nonzero;stroke:none" />
      <path
         transform="matrix(0.1037736,0,0,0.1037736,486.80565,428.94336)"
         d="m -29.586258,284.02811 c 0,43.30111 -35.102485,78.40359 -78.403592,78.40359 -43.30111,0 -78.4036,-35.10248 -78.4036,-78.40359 0,-43.30111 35.10249,-78.4036 78.4036,-78.4036 43.301107,0 78.403592,35.10249 78.403592,78.4036 z"
         sodipodi:ry="78.403595"
         sodipodi:rx="78.403595"
         sodipodi:cy="284.02811"
         sodipodi:cx="-107.98985"
         id="path3018"
         style="fill:#000000;fill-opacity:1;fill-rule:nonzero;stroke:none"
         sodipodi:type="arc" />
      <path
         sodipodi:type="arc"
         style="fill:#000000;fill-opacity:1;fill-rule:nonzero;stroke:none"
         id="path3020"
         sodipodi:cx="-107.98985"
         sodipodi:cy="284.02811"
         sodipodi:rx="78.403595"
         sodipodi:ry="78.403595"
         d="m -29.586258,284.02811 c 0,43.30111 -35.102485,78.40359 -78.403592,78.40359 -43.30111,0 -78.4036,-35.10248 -78.4036,-78.40359 0,-43.30111 35.10249,-78.4036 78.4036,-78.4036 43.301107,0 78.403592,35.10249 78.403592,78.4036 z"
         transform="matrix(0.1037736,0,0,0.1037736,538.58161,428.94336)" />
      <path
         inkscape:connector-curvature="0"
         id="path3022"
         d="m 467.47827,485.06008 c 0,11.01066 13.89724,19.9369 31.05306,19.9369 17.15582,0 31.0639,-8.92624 31.0639,-19.9369 l -4.65308,0 c -0.74215,9.8243 -12.51218,17.63273 -26.9206,17.63273 -14.40842,0 -26.17845,-7.80843 -26.92061,-17.63273 l -3.62267,0 z"
         style="fill:#000000;fill-opacity:1;fill-rule:nonzero;stroke:none" />
      <path
         sodipodi:nodetypes="cssssssssssssc"
         inkscape:connector-curvature="0"
         id="path3027"
         d="m 460.58554,377.9445 c 0.99262,0.66385 -0.30401,1.83599 -0.97868,1.85995 -1.82831,0.0649 -2.67229,-2.35351 -2.32089,-4.06668 0.62856,-3.06443 3.78098,-4.30964 6.23564,-3.37314 3.60232,1.37437 4.99952,6.19453 3.66309,9.99332 -1.78124,5.06317 -7.21499,6.97533 -11.4926,4.88632 -5.38292,-2.62881 -7.38029,-10.07724 -5.00529,-15.91994 2.87644,-7.07631 10.66389,-9.66916 16.74955,-6.39951 7.17175,3.85318 9.77489,13.96871 6.3475,21.84658 -3.95706,9.09531 -14.11747,12.37252 -22.00651,7.91268 -8.96402,-5.06755 -12.17504,-17.86363 -7.6897,-27.7732 5.03188,-11.11705 17.57319,-15.08024 27.26347,-9.42587 10.75805,6.27741 9.54243,20.23448 9.0319,33.69983 -0.47567,12.54585 -1.59978,29.67364 -6.52918,32.0472"
         style="fill:none;stroke:#000000;stroke-width:1.20000005;stroke-linecap:butt;stroke-linejoin:miter;stroke-miterlimit:4;stroke-opacity:1;stroke-dasharray:none" />
      <path
         style="fill:none;stroke:#000000;stroke-width:1.20000005;stroke-linecap:butt;stroke-linejoin:miter;stroke-miterlimit:4;stroke-opacity:1;stroke-dasharray:none"
         d="m 536.15781,377.9445 c -0.99262,0.66385 0.30401,1.83599 0.97868,1.85995 1.82831,0.0649 2.67229,-2.35351 2.32089,-4.06668 -0.62856,-3.06443 -3.78098,-4.30964 -6.23564,-3.37314 -3.60232,1.37437 -4.99952,6.19453 -3.66309,9.99332 1.78124,5.06317 7.21499,6.97533 11.4926,4.88632 5.38292,-2.62881 7.38029,-10.07724 5.00529,-15.91994 -2.87644,-7.07631 -10.66389,-9.66916 -16.74955,-6.39951 -7.17175,3.85318 -9.77489,13.96871 -6.3475,21.84658 3.95706,9.09531 14.11747,12.37252 22.00651,7.91268 8.96402,-5.06755 12.17504,-17.86363 7.6897,-27.7732 -5.03188,-11.11705 -17.57319,-15.08024 -27.26347,-9.42587 -10.75805,6.27741 -9.54243,20.23448 -9.0319,33.69983 0.47567,12.54585 1.59978,29.67364 6.52918,32.0472"
         id="path3798"
         inkscape:connector-curvature="0"
         sodipodi:nodetypes="cssssssssssssc" />
      <path
         inkscape:connector-curvature="0"
         id="path3800"
         d="m 362.68254,497.60812 c -49.97517,0.34345 -90.91076,56.53956 -91.9375,126.99864 l -0.0313,2.6537 c 0,70.56045 40.24641,128.15687 90.5625,129.59818 27.04301,0.77465 51.62438,-14.824 68.90625,-40.29295 -16.60687,19.2003 -38.75524,30.6601 -62.9375,30.03016 -49.51104,-1.28973 -89.125,-52.83782 -89.125,-115.97764 l 0,-2.35584 c 1.02635,-64.04989 42.57735,-114.9304 92.8125,-113.62181 30.85763,0.80382 57.81562,21.11571 73.78125,51.5035 -15.26223,-39.95325 -45.03567,-67.51715 -79.65625,-68.50886 -0.79769,-0.0229 -1.58174,-0.0325 -2.375,-0.0271 z"
         style="fill:#000000;fill-opacity:1;fill-rule:nonzero;stroke:none" />
      <path
         style="fill:#000000;fill-opacity:1;fill-rule:nonzero;stroke:none"
         d="m 637.54658,498.03184 c 49.92734,-2.21267 93.68317,51.81652 98.31176,122.1309 l 0.16696,2.64863 c 3.60838,70.46813 -33.63996,130.04734 -83.81651,134.05986 -26.96801,2.15658 -52.31491,-12.1646 -70.87662,-36.71645 17.56702,18.32593 40.27245,28.63809 64.39085,26.77232 49.38031,-3.81997 86.30633,-57.32642 83.07744,-120.38363 l -0.12048,-2.35276 c -4.30044,-63.91359 -48.39904,-112.60266 -98.50154,-108.72682 -30.77615,2.38079 -56.66014,24.0447 -71.05088,55.20919 13.1991,-40.68146 41.524,-69.73187 76.04856,-72.49274 0.79548,-0.0637 1.57801,-0.11335 2.37051,-0.14852 z"
         id="path3806"
         inkscape:connector-curvature="0" />
      <path
         inkscape:connector-curvature="0"
         id="path3808"
         d="m 679.04819,713.13044 c 44.16776,23.30825 68.69082,69.17625 54.91234,103.39233 l -0.52547,1.28526 c -14.70851,33.78913 -62.34183,42.73186 -107.18342,20.12039 -24.10067,-12.15281 -42.60918,-31.00628 -52.59848,-51.20587 10.69849,16.88514 27.91599,32.6299 49.45408,43.52719 44.09736,22.31123 89.91002,15.97196 103.07168,-14.26366 l 0.49108,-1.12815 c 12.44281,-31.14672 -13.73306,-74.75427 -58.47534,-97.3918 -27.48356,-13.90542 -55.58156,-16.66311 -76.04917,-9.50515 21.83889,-12.06429 53.9409,-11.47551 84.79469,4.08257 0.71089,0.35848 1.40697,0.71695 2.10806,1.0869 z"
         style="fill:#000000;fill-opacity:1;fill-rule:nonzero;stroke:none" />
      <path
         style="fill:#000000;fill-opacity:1;fill-rule:nonzero;stroke:none"
         d="m 320.26431,713.13044 c -44.16776,23.30825 -68.69082,69.17625 -54.91234,103.39233 l 0.52547,1.28526 c 14.70851,33.78913 62.34183,42.73186 107.18342,20.12039 24.10067,-12.15281 42.60918,-31.00628 52.59848,-51.20587 -10.69849,16.88514 -27.91599,32.6299 -49.45408,43.52719 -44.09736,22.31123 -89.91002,15.97196 -103.07168,-14.26366 l -0.49108,-1.12815 c -12.44281,-31.14672 13.73306,-74.75427 58.47534,-97.3918 27.48356,-13.90542 55.58156,-16.66311 76.04917,-9.50515 -21.83889,-12.06429 -53.9409,-11.47551 -84.79469,4.08257 -0.71089,0.35848 -1.40697,0.71695 -2.10806,1.0869 z"
         id="path3810"
         inkscape:connector-curvature="0" />
    </g>
  </g>
</svg>
